<?xml version="1.0" encoding="UTF-8"?>
<svg width="200px" height="44px" viewBox="0 0 200 44" version="1.1" xmlns="http://www.w3.org/2000/svg" xmlns:xlink="http://www.w3.org/1999/xlink">
    <!-- Generator: Sketch 55.2 (78181) - https://sketchapp.com -->
    <title>Group</title>
    <desc>Created with Sketch.</desc>
    <defs>
        <polygon id="path-1" points="0.00588235294 0.376432079 24.2830065 0.376432079 24.2830065 38.4189853 0.00588235294 38.4189853"></polygon>
    </defs>
    <g id="Page-1" stroke="none" stroke-width="1" fill="none" fill-rule="evenodd">
        <g id="Artboard" transform="translate(-146.000000, -442.000000)">
            <g id="Group" transform="translate(146.000230, 442.000000)">
                <path d="M19.7084967,30.3996727 C19.7084967,31.0510638 19.4339869,31.7364975 18.8875817,32.4559738 C17.996732,33.8268412 16.6627451,34.9155483 14.8830065,35.7201309 C13.1039216,36.5260229 11.1366013,36.9286416 8.98169935,36.9286416 C7.95555556,36.9286416 6.99673203,36.7577741 6.10653595,36.41473 C5.21699346,36.0723404 4.45620915,35.5918167 3.82287582,34.9744681 C3.19019608,34.3584288 2.68562092,33.6382979 2.30915033,32.8153846 C1.93267974,31.9937807 1.74509804,31.1021277 1.74509804,30.1423895 C1.74509804,28.2235679 2.60784314,26.6903437 4.33594771,25.5414075 C6.06339869,24.393126 8.34705882,23.8189853 11.1888889,23.8189853 C14.2333333,23.8189853 17.0738562,24.3328969 19.7084967,25.3613748 L19.7084967,30.3996727 Z M21.4535948,35.1296236 L21.4535948,21.1459902 C21.4535948,17.9243863 20.554902,15.3875614 18.7588235,13.5374795 C16.9627451,11.6860884 14.5065359,10.7617021 11.3928105,10.7617021 C8.51960784,10.7617021 5.35359477,11.9263502 1.89803922,14.2569558 L2.72026144,15.5427169 C4.2254902,14.4808511 5.70457516,13.6657938 7.15882353,13.1001637 C8.6124183,12.5351882 9.99019608,12.2517185 11.2908497,12.2517185 C13.8568627,12.2517185 15.9019608,13.0490998 17.4248366,14.6425532 C18.9464052,16.2360065 19.7084967,18.3695581 19.7084967,21.0432079 L19.7084967,23.9217676 C18.5098039,23.4425532 17.1424837,23.0824877 15.6019608,22.8422259 C14.0620915,22.6032733 12.5562092,22.4821604 11.0856209,22.4821604 C9.44379085,22.4821604 7.94640523,22.6713584 6.59477124,23.0477905 C5.24248366,23.4255319 4.07973856,23.9564648 3.10457516,24.6418985 C2.12941176,25.3279869 1.36732026,26.1410802 0.820915033,27.0837971 C0.273202614,28.0265139 -1.77635684e-15,29.0628478 -1.77635684e-15,30.194108 C-1.77635684e-15,31.3594108 0.222222222,32.4389525 0.666013072,33.4327332 C1.11045752,34.4271686 1.72679739,35.292635 2.51437908,36.0291326 C3.30065359,36.7662848 4.2254902,37.3482815 5.28627451,37.7770867 C6.34575163,38.2052373 7.49346405,38.4193126 8.7248366,38.4193126 C10.9830065,38.4193126 13.0960784,37.9826514 15.0633987,37.1086743 C17.0300654,36.2346972 18.6130719,34.9927987 19.8104575,33.3816694 L19.8104575,35.7463175 C19.8104575,36.3630115 20.0235294,36.8860884 20.4529412,37.314239 C20.8803922,37.7430442 21.3843137,37.9564648 21.9666667,37.9564648 C22.1379085,37.9564648 22.2745098,37.9394435 22.3777778,37.905401 L22.3777778,36.2602291 C21.7614379,36.2602291 21.4535948,35.8837971 21.4535948,35.1296236 L21.4535948,35.1296236 Z" id="Fill-1" fill="#231F20"></path>
                <path d="M50.9648366,35.1293617 L50.9648366,11.1719149 L49.2197386,11.1719149 L49.2197386,28.137545 C48.8099346,29.4062848 48.2354248,30.5715876 47.5001307,31.6334534 C46.7648366,32.6959738 45.9099346,33.6046481 44.9341176,34.3581669 C43.9589542,35.1123404 42.8896732,35.7035025 41.7262745,36.131653 C40.5635294,36.5611129 39.3824837,36.7745336 38.185098,36.7745336 C33.3942484,36.7745336 30.9994771,33.2445827 30.9994771,26.1840262 L30.9994771,11.1719149 L29.2543791,11.1719149 L29.2543791,26.3895908 C29.2543791,30.3660229 29.9733333,33.3643863 31.4105882,35.3866448 C32.8465359,37.4089034 34.985098,38.4190507 37.8249673,38.4190507 C40.2203922,38.4190507 42.4452288,37.7859902 44.4975163,36.5172504 C46.5504575,35.24982 48.1589542,33.5188871 49.3230065,31.3244517 L49.3230065,35.7460556 C49.3230065,36.2606219 49.5197386,36.7575123 49.9132026,37.2373813 C50.3060131,37.7172504 50.7935948,37.9562029 51.3759477,37.9562029 L51.6066667,37.9562029 C51.6909804,37.9562029 51.7870588,37.9391817 51.8890196,37.9051391 L51.8890196,36.2606219 C51.2726797,36.2606219 50.9648366,35.8835352 50.9648366,35.1293617" id="Fill-3" fill="#231F20"></path>
                <path d="M64.874183,15.1569885 C66.6866013,13.7003601 68.8251634,12.9206547 71.2885621,12.8178723 L71.2885621,11.1720458 C71.0833333,11.1720458 70.8447712,11.1812111 70.5702614,11.1982324 C70.2970588,11.2152537 69.9879085,11.2237643 69.6473856,11.2237643 C67.9022876,11.429329 66.2591503,12.1324386 64.7199346,13.331784 C63.1800654,14.531784 61.9480392,16.0735188 61.0238562,17.9582979 L61.0238562,11.1720458 L59.3303922,11.1720458 L59.3303922,37.90527 L61.0754902,37.90527 L61.0754902,21.0941408 C61.7937908,18.5933224 63.0591503,16.6142717 64.874183,15.1569885" id="Fill-5" fill="#231F20"></path>
                <path d="M77.4226797,19.2435352 C78.0200654,17.8386252 78.8167974,16.6216039 79.8083007,15.5937807 C80.8004575,14.5653028 81.9468627,13.7607201 83.2475163,13.1774141 C84.5481699,12.5954173 85.9501307,12.303437 87.4566667,12.303437 C88.9612418,12.303437 90.3645098,12.586252 91.6651634,13.1512275 C92.9645098,13.7175123 94.1200654,14.5135843 95.1298693,15.5427169 C96.138366,16.5705401 96.9514379,17.7869067 97.5677778,19.1924714 C98.1834641,20.598036 98.5429412,22.1404255 98.6455556,23.8189853 L76.3710458,23.8189853 C76.4730065,22.1744681 76.8226797,20.6490998 77.4226797,19.2435352 M98.4396732,31.9414075 L96.8494771,31.5309329 C96.4723529,32.3198036 95.9762745,33.0471358 95.3605882,33.7148936 C94.7442484,34.3839607 94.0252941,34.9581015 93.2043791,35.4373159 C92.3841176,35.9184943 91.5017647,36.285761 90.562549,36.5430442 C89.6200654,36.7996727 88.6540523,36.9286416 87.6618954,36.9286416 C86.19,36.9286416 84.8050327,36.6294599 83.5043791,36.0291326 C82.2030719,35.4301146 81.0494771,34.6150573 80.0396732,33.5865794 C79.0298693,32.5587561 78.1998039,31.3338789 77.5501307,29.911293 C76.9004575,28.4893617 76.5239869,26.9548282 76.4220261,25.310311 L100.339673,25.310311 C100.339673,25.2762684 100.346863,25.1558101 100.365163,24.9502455 C100.381503,24.7440262 100.390654,24.607856 100.390654,24.5391162 C100.390654,22.6543372 100.04817,20.8716858 99.3638562,19.1924714 C98.6782353,17.513257 97.7553595,16.0481178 96.5926144,14.797054 C95.4285621,13.5459902 94.0599346,12.5607201 92.4860784,11.8405892 C90.9122222,11.1211129 89.2181046,10.7617021 87.4050327,10.7617021 C85.5913072,10.7617021 83.9154902,11.1211129 82.3756209,11.8405892 C80.835098,12.5607201 79.4828105,13.5374795 78.3200654,14.7708674 C77.1573203,16.00491 76.2494771,17.4445172 75.5998039,19.089689 C74.9501307,20.7342062 74.6259477,22.500491 74.6259477,24.38527 C74.6259477,26.3040917 74.9586275,28.1116203 75.6266013,29.8085106 C76.2926144,31.505401 77.217451,32.996072 78.3978431,34.2811784 C79.5775817,35.5662848 80.9547059,36.5777414 82.5285621,37.314239 C84.1030719,38.0507365 85.7971895,38.4193126 87.610915,38.4193126 C88.8083007,38.4193126 89.9710458,38.2563011 91.1011111,37.9309329 C92.2292157,37.6055646 93.2736601,37.1597381 94.2311765,36.594108 C95.1886928,36.0291326 96.0364052,35.3436989 96.7716993,34.5378069 C97.5076471,33.7332242 98.0632026,32.8677578 98.4396732,31.9414075" id="Fill-7" fill="#231F20"></path>
                <path d="M127.463529,29.2942717 C126.864837,30.7849427 126.060915,32.0792144 125.052418,33.1757774 C124.042614,34.2723404 122.861569,35.1463175 121.511242,35.7977087 C120.446536,36.310311 119.333464,36.6134206 118.173987,36.7227496 L118.173987,12.4549918 C119.348497,12.5597381 120.470719,12.8628478 121.536732,13.3826514 C122.870719,14.0340426 124.042614,14.9080196 125.052418,16.0045827 C126.060915,17.102455 126.864837,18.396072 127.463529,19.8860884 C128.062222,21.3767594 128.362222,22.9453355 128.362222,24.5898527 C128.362222,26.2350245 128.062222,27.8036007 127.463529,29.2942717 L127.463529,29.2942717 Z M116.866797,36.7548282 C115.493595,36.708347 114.182484,36.4065466 112.938693,35.8232406 C111.587059,35.1895254 110.41451,34.3247136 109.423007,33.2268412 C108.430196,32.1302782 107.643922,30.8451718 107.062876,29.3715221 C106.479869,27.8978723 106.189673,26.3378069 106.189673,24.6932897 C106.189673,23.0140753 106.488366,21.4284779 107.088366,19.9378069 C107.685752,18.4471358 108.490327,17.1443535 109.500131,16.0307692 C110.509281,14.9171849 111.68183,14.0340426 113.015817,13.3826514 C114.228235,12.792144 115.513856,12.4824877 116.866797,12.4281506 L116.866797,36.7548282 Z M130.158301,24.6422259 C130.158301,22.7574468 129.824967,20.9747954 129.157647,19.295581 C128.49098,17.6163666 127.574641,16.1420622 126.411895,14.8739771 C125.248497,13.6065466 123.879216,12.6042553 122.306013,11.8664484 C121.000131,11.2556465 119.620392,10.913257 118.173987,10.8091653 L118.173987,4.38036007 L116.866797,4.38036007 L116.866797,10.7836334 C115.241961,10.8360065 113.70732,11.1875614 112.271373,11.8664484 C110.713203,12.6042553 109.354379,13.6065466 108.191634,14.8739771 C107.028235,16.1420622 106.113203,17.6163666 105.445229,19.295581 C104.777908,20.9747954 104.444575,22.7574468 104.444575,24.6422259 C104.444575,26.4923077 104.768758,28.2579378 105.419739,29.9364975 C106.070065,31.6163666 106.975948,33.0815057 108.140654,34.3319149 C109.303399,35.5836334 110.662222,36.5774141 112.220392,37.3139116 C113.657647,37.994108 115.209935,38.3456628 116.866797,38.398036 L116.866797,43.0559738 L118.173987,43.0559738 L118.173987,38.3718494 C119.620392,38.2677578 121.000131,37.9247136 122.306013,37.3139116 C123.879216,36.5774141 125.248497,35.5836334 126.411895,34.3319149 C127.574641,33.0815057 128.49098,31.6163666 129.157647,29.9364975 C129.824967,28.2579378 130.158301,26.4923077 130.158301,24.6422259 L130.158301,24.6422259 Z" id="Fill-9" fill="#231F20"></path>
                <path d="M142.708105,37.0568903 C142.177386,37.1433061 141.723791,37.1852046 141.34732,37.1852046 C140.321176,37.1852046 139.500261,36.8945336 138.883268,36.3112275 C138.268235,35.7292308 137.960392,34.9416694 137.960392,33.9465794 L137.960392,0.376693944 L136.932941,0.376693944 L136.932941,33.9465794 C136.932941,35.2153191 137.309412,36.2346318 138.063007,37.0058265 C138.814641,37.7770213 139.789804,38.161964 140.988497,38.161964 C141.467582,38.161964 142.057124,38.1023895 142.759085,37.9825859 C143.459739,37.8621277 144.049935,37.7174468 144.529673,37.54527 L144.169542,36.7230115 C143.725752,36.8598363 143.23817,36.971784 142.708105,37.0568903" id="Fill-11" fill="#231F20"></path>
                <path d="M165.828366,30.5537807 C165.828366,31.2398691 165.571503,31.9416694 165.058431,32.6618003 C164.134248,34.1007529 162.723791,35.249689 160.825098,36.1059902 C158.925098,36.962946 156.82902,37.3910966 154.53817,37.3910966 C153.477386,37.3910966 152.483922,37.2110638 151.561046,36.851653 C150.636863,36.4915876 149.832288,35.9861866 149.147974,35.3347954 C148.464314,34.6847136 147.923791,33.9213748 147.532288,33.0473977 C147.137516,32.1734206 146.941438,31.2398691 146.941438,30.2454337 C146.941438,29.251653 147.18,28.352144 147.659739,27.546252 C148.138824,26.7416694 148.815294,26.0470704 149.68719,25.464419 C150.560392,24.8817676 151.602876,24.4359411 152.818562,24.1275941 C154.032288,23.8192471 155.391765,23.665401 156.898301,23.665401 C160.113987,23.665401 163.090458,24.1969885 165.828366,25.2588543 L165.828366,30.5537807 Z M166.85451,35.8493617 L166.85451,21.0945336 C166.85451,19.5187561 166.623791,18.0961702 166.161699,16.8274304 C165.700915,15.56 165.049935,14.4804583 164.212026,13.5888052 C163.372157,12.6978069 162.346013,12.0130278 161.132288,11.5325041 C159.917255,11.0532897 158.574118,10.8130278 157.103529,10.8130278 C154.365621,10.8130278 151.286536,11.9783306 147.865621,14.3089362 L148.480654,15.1305401 C149.98719,14.0686743 151.475425,13.2542717 152.946013,12.6892962 C154.416601,12.1236661 155.802876,11.8408511 157.103529,11.8408511 C158.403529,11.8408511 159.593072,12.0640917 160.670196,12.5092635 C161.749281,12.95509 162.671503,13.5802946 163.441438,14.3855319 C164.212026,15.1914239 164.802222,16.1675286 165.213333,17.3158101 C165.623137,18.4647463 165.828366,19.7243208 165.828366,21.0945336 L165.828366,24.1275941 C164.562353,23.647725 163.142745,23.2798036 161.568889,23.0225205 C159.995033,22.765892 158.437516,22.6369231 156.898301,22.6369231 C155.289804,22.6369231 153.810065,22.8254664 152.458431,23.2018985 C151.106797,23.5802946 149.943399,24.1020622 148.968235,24.7704746 C147.993072,25.4388871 147.241438,26.2349591 146.710065,27.1606547 C146.179346,28.0856956 145.914641,29.1141735 145.914641,30.2454337 C145.914641,31.3766939 146.136863,32.4392144 146.582614,33.4323404 C147.026405,34.4274304 147.634248,35.2922422 148.404183,36.0287398 C149.174118,36.765892 150.08915,37.3485434 151.149935,37.7766939 C152.210719,38.2054992 153.339477,38.4195745 154.53817,38.4195745 C156.86366,38.4195745 159.019869,37.9829133 161.004837,37.1089362 C162.987843,36.2349591 164.59634,34.9924059 165.828366,33.3812766 L165.828366,35.8493617 C165.828366,36.2951882 165.930327,36.6971522 166.136209,37.0572177 C166.341438,37.4166285 166.614641,37.6660556 166.958431,37.8022259 C167.060392,37.8716203 167.298954,37.9050082 167.675425,37.9050082 L167.675425,36.8771849 C167.127712,36.8771849 166.85451,36.5354501 166.85451,35.8493617 L166.85451,35.8493617 Z" id="Fill-13" fill="#231F20"></path>
                <g id="Group-17" transform="translate(175.163203, -0.000000)">
                    <mask id="mask-2" fill="white">
                        <use xlink:href="#path-1"></use>
                    </mask>
                    <g id="Clip-16"></g>
                    <path d="M22.3836601,29.2942717 C21.8013072,30.8196399 20.9895425,32.1819967 19.9457516,33.3813421 C18.9026144,34.5813421 17.6529412,35.5495908 16.1986928,36.2860884 C14.7444444,37.0232406 13.1620915,37.391162 11.4509804,37.391162 C10.4248366,37.391162 9.3130719,37.1777414 8.11568627,36.7489362 C6.91699346,36.3201309 5.80653595,35.7381342 4.77973856,35.000982 C3.75228758,34.2644845 2.88823529,33.406874 2.1875817,32.4301146 C1.48496732,31.4533552 1.10065359,30.4170213 1.03202614,29.3198036 L1.03202614,19.6032733 C1.54640523,18.5754501 2.1620915,17.5986907 2.88039216,16.6736498 C3.59934641,15.7479542 4.41111111,14.9256956 5.31895425,14.2055646 C6.2248366,13.4860884 7.23464052,12.9126023 8.34640523,12.4831424 C9.45882353,12.0556465 10.6470588,11.8409165 11.9130719,11.8409165 C13.5895425,11.8409165 15.1215686,12.200982 16.5078431,12.9204583 C17.8928105,13.6399345 19.0901961,14.591162 20.1,15.7734861 C21.1084967,16.9558101 21.8869281,18.3181669 22.4346405,19.8605565 C22.9823529,21.402946 23.2568627,22.9963993 23.2568627,24.6422259 C23.2568627,26.2186579 22.9660131,27.7695581 22.3836601,29.2942717 M23.4352941,19.7060556 C22.8712418,18.0615385 22.0673203,16.5793781 21.024183,15.2595745 C19.9797386,13.9404255 18.6882353,12.8687398 17.148366,12.0464812 C15.6091503,11.2235679 13.8640523,10.8130933 11.9130719,10.8130933 C9.58627451,10.8130933 7.53333333,11.4382979 5.75424837,12.6893617 C3.9745098,13.9404255 2.40065359,15.5253682 1.03202614,17.4441899 L1.03202614,0.376432079 L0.00588235294,0.376432079 L0.00588235294,37.9050736 L1.03202614,37.9050736 L1.03202614,32.3528642 C1.54640523,33.20982 2.1875817,34.0065466 2.95686275,34.7436989 C3.72679739,35.4808511 4.56535948,36.1237316 5.47189542,36.6716858 C6.37843137,37.2196399 7.3372549,37.6484452 8.34640523,37.9561375 C9.35490196,38.2651391 10.3901961,38.4189853 11.4509804,38.4189853 C13.2653595,38.4189853 14.9503268,38.0418985 16.5078431,37.2883797 C18.0640523,36.5355155 19.4235294,35.5240589 20.5875817,34.2553191 C21.7503268,32.9878887 22.6568627,31.5220949 23.3078431,29.8592471 C23.9575163,28.1977087 24.2830065,26.4589198 24.2830065,24.6422259 C24.2830065,22.9963993 24.0013072,21.3512275 23.4352941,19.7060556" id="Fill-15" fill="#231F20" mask="url(#mask-2)"></path>
                </g>
            </g>
        </g>
    </g>
</svg>